PathFileType	4	(X/Y/Z)	F:\MotionCapture\20160217\3\Generated_files\EMG_Fprce_test01-Dynamic.trc
DataRate	CameraRate	NumFrames	NumMarkers	Units	OrigDataRate	OrigDataStartFrame	OrigNumFrames
120.00	120.00	       8	39	mm	120.00	498	       569
Frame#	Time	Top.Head			Front.Head			Rear.Head			R.Shoulder			R.Offset			R.Elbow			R.Wrist			L.Shoulder			L.Elbow			L.Wrist			R.ASIS			L.ASIS			V.Sacral			R.Thigh			R.Knee			R.Shank			R.Ankle			R.Heel			R.Toe			L.Thigh			L.Knee			L.Shank			L.Ankle			L.Heel			L.Toe			R1			R2			R3			R4			R5			R6			R7			L1			L2			L3			L4			L5			L6			L7			V_Mid_ASIS			V_Pelvis_Origin			V_R.Hip_JC			V_L.Hip_JC			V_R.Knee_JC			V_L.Knee_JC			V_R.Ankle_JC			V_L.Ankle_JC			V_Mid_Hip			V_Mid_Shoulder			V_R.Hand			V_L.Hand			V_R.Toe_Offset_Static			V_L.Toe_Offset_Static			V_R.Toe_Offset			V_L.Toe_Offset			
		X1	Y1	Z1	X2	Y2	Z2	X3	Y3	Z3	X4	Y4	Z4	X5	Y5	Z5	X6	Y6	Z6	X7	Y7	Z7	X8	Y8	Z8	X9	Y9	Z9	X10	Y10	Z10	X11	Y11	Z11	X12	Y12	Z12	X13	Y13	Z13	X14	Y14	Z14	X15	Y15	Z15	X16	Y16	Z16	X17	Y17	Z17	X18	Y18	Z18	X19	Y19	Z19	X20	Y20	Z20	X21	Y21	Z21	X22	Y22	Z22	X23	Y23	Z23	X24	Y24	Z24	X25	Y25	Z25	X26	Y26	Z26	X27	Y27	Z27	X28	Y28	Z28	X29	Y29	Z29	X30	Y30	Z30	X31	Y31	Z31	X32	Y32	Z32	X33	Y33	Z33	X34	Y34	Z34	X35	Y35	Z35	X36	Y36	Z36	X37	Y37	Z37	X38	Y38	Z38	X39	Y39	Z39	

498	4.142	-2152.31787	253.77753	1667.63293	-2249.86646	214.72420	1576.19189	-2042.23352	279.50815	1607.53174	-2073.56689	436.70682	1358.33203	-1944.26880	159.76978	1221.65723	-1968.79810	520.08765	1050.86621	-2007.52319	555.34528	792.71033	-2096.64478	33.12144	1386.65515	-2156.39478	-92.96066	1076.78918	-2388.19849	-53.01696	972.57324				-2153.94043	54.67828	893.03839	-1947.92603	230.52216	881.22260	-2330.01050	380.42349	477.37369	-2343.61279	320.82401	597.86115							-2296.33643	362.68466	42.09053	-2513.09619	387.08481	40.31618	-2171.80225	83.04025	556.57245	-2037.61011	44.41589	404.43460	-1969.98010	126.92691	280.46146	-1743.93103	87.37429	116.41514	-1683.67578	152.34964	130.36154	-1852.92566	78.18254	40.93221	-2555.19556	360.22391	40.72890	-2515.42114	347.21674	46.74583	-2413.07300	321.54309	52.90710	-2338.54883	325.68774	38.02420	-2330.82861	400.55441	39.55602	-2408.59033	423.51315	31.17048	-2475.29297	436.82758	30.41138	-1895.53064	99.88384	33.76911	-1871.26831	117.64204	43.34985	-1799.21240	166.41109	80.08849	-1723.47607	177.62349	111.30473	-1701.14929	108.97687	116.64313	-1758.57568	68.89751	72.84814	-1813.71936	54.99745	51.03294																																																	-2378.67017	328.49796	239.04195	-2190.74292	341.68231	904.59418	-2370.44971	414.67023	70.60613	-1584.09644	125.95339	158.79854	
499	4.150	-2163.23486	254.22984	1665.27747	-2260.45850	214.69032	1573.48511	-2051.89673	280.29568	1605.36804	-2085.46460	438.63376	1355.83875	-1952.29663	162.72595	1219.48560	-1981.39282	522.10040	1048.15747	-2020.39551	556.52625	789.96979	-2105.83130	34.45492	1384.44116	-2164.54761	-91.37667	1073.41589	-2395.66284	-51.78795	968.91058				-2162.87891	56.64396	889.46857	-1958.34875	233.40831	877.36438	-2343.61816	382.37219	476.46539	-2357.47241	325.78415	599.58466							-2298.00781	358.82693	41.59251	-2512.25562	385.45313	39.27369	-2184.08691	80.90517	554.65033	-2050.01196	43.38662	402.52884	-1980.90527	126.08558	278.91495	-1748.35901	91.58150	121.75490	-1690.92175	157.46510	137.73869	-1854.66736	79.76783	43.08433	-2557.06714	359.22198	36.28400	-2515.34180	347.50955	44.90662	-2413.62329	319.12399	51.90381	-2339.94849	323.92310	37.82234	-2331.79224	398.52905	41.44883	-2408.80200	420.17563	33.52468	-2475.94946	433.64276	32.76310	-1896.01392	99.73956	33.35845	-1871.71887	117.55362	41.79082	-1805.05603	168.65964	83.60117	-1730.81409	182.25229	119.28336	-1706.83655	113.24498	124.77824	-1761.45496	72.30972	78.31519	-1815.34351	57.48886	54.84693																																																	-2387.08667	327.92224	237.70206	-2201.16626	343.01221	903.22931	-2368.31616	411.36096	70.10443	-2362.39746	323.64539	66.86869	-2467.96240	481.19293	-6.35427	-1588.77295	129.87190	165.85777	
500	4.158	-2174.23657	254.90176	1663.09900	-2270.95361	214.76147	1571.30273	-2063.26953	282.19821	1603.33752	-2097.33325	440.54587	1353.38904	-1962.99963	164.98735	1217.15369	-1994.46143	524.49701	1045.77502	-2033.59326	558.14612	787.06171	-2114.68408	35.25177	1381.75427	-2171.95630	-89.25964	1070.27771	-2402.72144	-50.80772	964.56396				-2171.54370	58.20311	886.19696	-1967.20044	236.64894	873.34027	-2358.91455	384.19305	475.07611	-2371.62231	330.70877	599.78625							-2298.38013	356.93628	41.30496	-2513.37134	381.38681	39.78781	-2195.89600	79.11726	552.72925	-2061.87622	41.97980	400.80295	-1992.16772	125.80652	277.88245	-1754.20459	95.68411	128.46925	-1698.15723	164.06963	144.92944	-1857.14673	81.30311	45.87838	-2560.49878	353.18741	34.29532	-2515.06323	341.93170	43.50265	-2413.41992	318.38788	51.86977	-2341.06909	323.18213	38.14670	-2332.58008	398.20938	41.76025	-2409.13354	418.30099	35.78272	-2478.11084	429.50980	34.39314	-1898.60779	99.52252	33.71729	-1875.31738	118.29008	42.93818	-1811.16809	171.33537	87.02368	-1738.80115	187.39474	125.77436	-1713.13293	118.92049	131.46187	-1766.02759	76.04969	84.38712	-1818.86292	60.00791	60.07781																																																	-2392.66577	326.62500	235.90823	-2211.41504	344.23257	902.21680	3652.39624	-1492.47278	-856.06543	-2365.85400	411.66193	72.33606	-2469.47754	478.26996	-5.41014	-2434.21387	343.75537	136.45622	
501	4.167	-2185.18237	254.91867	1661.74951	-2281.44336	214.35561	1569.48279	-2074.35913	283.69656	1602.24927	-2109.53369	441.64865	1351.16528	-1970.17419	168.13193	1216.04321	-2007.81604	526.46503	1042.89807	-2047.17859	559.45343	784.48712	-2123.09985	36.24357	1379.71594	-2178.70776	-86.93314	1066.99805	-2409.00977	-49.76520	959.94287				-2179.75220	59.90971	883.04193	-1976.84705	239.50064	870.55707	-2374.08765	384.72986	475.08398	-2384.85498	335.55453	599.74060							-2298.49854	358.16327	42.03196	-2514.53223	385.72235	38.03384	-2207.45142	77.19419	551.35333	-2073.30615	41.28850	399.27908	-2003.52747	125.67384	277.27109	-1760.42957	100.58347	134.41052	-1706.21399	170.09239	152.17984	-1860.94861	82.55950	49.57057	-2561.50244	361.15625	34.28482	-2517.00830	347.93271	44.06869	-2415.57520	318.54108	50.95420	-2341.96313	322.37537	38.07714	-2333.19360	396.85956	42.42213	-2409.30493	418.79623	34.60952	-2476.63086	433.77231	32.66133	-1902.87634	99.14565	33.96839	-1880.09668	117.79948	45.56068	-1816.99072	173.83397	91.51327	-1747.31567	192.95317	132.59145	-1720.26013	124.88779	139.17772	-1769.77393	80.18398	90.62539	-1821.17773	62.11576	63.92506																																																	-2398.63794	326.72653	234.59126	-2221.40063	345.77902	901.22479	-2368.38672	410.34180	72.35284	-2469.07813	479.86374	-4.96973	-2436.65479	342.54752	137.59552	
502	4.175	-2196.29468	254.59875	1660.21521	-2291.60205	213.82558	1567.39453	-2085.00732	284.27081	1600.98254	-2121.49951	443.09061	1349.36670	-1980.74695	170.07384	1214.68884	-2021.25330	528.25787	1040.53418	-2061.48706	560.47803	782.24872	-2131.89941	36.96609	1377.97876	-2184.86768	-85.07354	1064.06470	-2414.79468	-49.08833	955.32037				-2187.26172	61.07506	879.95044	-1985.31348	241.43916	868.84863	-2387.94482	384.45782	475.43790	-2396.80713	339.35229	601.02313							-2299.69727	356.80515	43.11389	-2515.21265	386.01913	37.63717	-2218.74487	75.25688	551.05499	-2085.15015	40.41027	398.61221	-2014.79614	125.85719	277.06137	-1767.45374	105.83388	140.80606	-1715.64600	176.87573	159.15741	-1865.58728	83.72738	53.66813	-2563.17334	358.86917	33.62233	-2518.32935	345.25797	44.10588	-2417.04541	317.85574	49.60818	-2342.94165	321.43185	37.73567	-2333.83276	395.57349	43.39848	-2410.40967	419.76019	33.67480	-2476.78613	434.97510	32.70992	-1907.43042	98.11607	33.97487	-1886.08044	117.71192	48.68016	-1824.94775	177.19958	96.51678	-1757.01355	198.59230	138.81804	-1727.81628	131.13133	145.71964	-1775.46594	84.19779	97.50005	-1825.46362	64.84863	69.71305																																																	-2405.90015	326.23566	235.51378	-2231.26660	347.50833	900.39740	-2369.29883	409.26694	71.51627	
503	4.183	-2206.87720	254.84648	1658.79297	-2301.70703	213.00876	1565.61292	-2096.53516	285.73099	1600.52014	-2133.12549	443.94669	1348.03235	-1988.30823	172.90677	1213.61169	-2034.55847	530.22046	1038.44910	-2076.18994	561.57660	780.52063	-2140.02832	37.47218	1376.26086	-2190.55420	-83.07571	1061.47803	-2419.54102	-48.59019	950.40228				-2194.41895	62.05421	877.44891	-1994.09668	243.32007	867.32672	-2399.56812	385.24481	475.55792	-2407.78052	342.14465	602.38373							-2301.56860	351.72339	44.37734	-2515.83594	384.13974	38.18369	-2228.98560	73.37055	550.95398	-2096.39795	40.02096	397.63388	-2026.15112	126.11811	277.48209	-1775.69568	110.35091	147.62029	-1726.64526	183.00566	165.72797	-1870.86670	84.15882	57.62535	-2564.58887	358.58212	33.08131	-2518.87402	343.69580	43.51589	-2418.13892	316.93689	49.85120	-2343.82300	322.38913	36.39232	-2334.32373	394.65854	43.36896	-2410.77295	418.95651	34.34161	-2478.36865	431.93057	33.66250	-1912.67188	96.10209	34.42636	-1892.07458	116.80814	50.93712	-1833.64795	179.80713	100.69279	-1766.05420	203.34854	139.50471	-1736.24939	136.97795	153.56783	-1781.87207	89.30531	104.45367	-1830.41687	67.26096	75.45818																																																	-2411.51929	327.23615	235.02725	-2240.62158	348.94901	899.86365	-2369.71533	409.45032	72.77740	
504	4.192	-2217.47632	254.28729	1657.69031	-2311.60449	212.07758	1564.12744	-2106.79150	285.60504	1599.41284	-2144.97778	444.84518	1347.08020	-1996.55176	173.82449	1213.30481	-2048.78711	532.30621	1036.79041	-2090.81299	561.95801	778.92480	-2147.69312	38.11306	1374.82141	-2195.74780	-81.31168	1058.91309	-2424.05566	-48.27767	945.56409				-2202.11768	62.89292	876.28845	-2003.03467	245.61319	867.02820	-2408.91064	386.47495	475.01590	-2417.37964	344.22827	602.60358							-2301.47510	352.67374	43.68213	-2516.23779	385.75381	37.41280	-2239.02637	71.91579	550.93024	-2108.29321	39.43089	396.80038	-2037.65002	126.63252	277.97433	-1783.93213	116.42762	152.37520	-1738.22974	190.94278	170.08156	-1876.83508	83.79903	62.89877	-2564.81104	361.46381	32.86184	-2519.70166	346.54755	43.65020	-2419.08496	316.26111	49.49144	-2344.70996	321.59415	36.57719	-2334.84277	393.43188	43.59882	-2411.17407	417.63577	35.48832	-2477.85645	433.50781	33.18925	-1917.48840	90.28019	36.92181	-1899.27136	113.66129	53.80280	-1843.89331	182.47627	104.22104	-1777.22253	207.64052	143.38921	-1745.81396	143.92587	159.14943	-1789.00977	93.92151	110.95000	-1836.30042	68.16267	81.58931																																																	-2417.69897	328.31326	234.96599	-2250.03418	350.16537	899.55353	-2370.04102	408.47974	73.29420	
505	4.200	-2227.59302	253.68909	1656.94470	-2321.31372	210.69647	1563.02856	-2117.27368	286.10104	1598.73901	-2156.31030	445.57590	1346.21899	-2003.75403	176.51891	1213.34802	-2062.26855	533.39117	1035.77002	-2106.32080	562.82721	777.86267	-2155.53271	38.70409	1373.58838	-2200.63940	-79.82497	1056.85327	-2427.86841	-48.12032	940.59058				-2208.77588	65.26891	876.13495	-2011.36267	247.82368	866.34790	-2416.96631	387.41040	474.40640	-2426.33960	345.10651	600.89728							-2301.17163	352.49634	43.85388	-2516.76489	386.11502	37.19217	-2248.61792	71.01733	551.27643	-2120.58203	38.25491	396.81714	-2049.32397	126.69934	277.98547	-1793.40112	121.17028	157.56104	-1750.80493	197.82368	173.43054	-1882.83411	82.43293	67.20543	-2565.96167	360.04340	32.63979	-2520.23413	345.65866	43.52472	-2419.43018	316.48163	48.15314	-2345.42041	321.06906	36.60300	-2334.72461	392.60864	43.98994	-2411.47998	417.18869	35.72796	-2477.91821	434.31027	32.98352	-1923.79114	87.40843	39.54059	-1906.72900	110.33858	57.26169	-1854.88477	184.20906	106.15878	-1790.38574	213.42386	145.00946	-1756.39966	150.73798	163.26711	-1796.41223	98.01626	116.32030	-1842.59546	69.32873	87.21230																																																	-2423.80347	328.51730	234.33469	-2258.98804	351.15042	899.07874	-2371.07690	407.45422	73.34055	
